<?xml version="1.0" encoding="utf-8"?>
<!-- Generator: Adobe Illustrator 26.1.0, SVG Export Plug-In . SVG Version: 6.00 Build 0)  -->
<svg version="1.1" id="Ebene_1" xmlns="http://www.w3.org/2000/svg" xmlns:xlink="http://www.w3.org/1999/xlink" x="0px" y="0px"
	 viewBox="0 0 700 700" style="enable-background:new 0 0 700 700;" xml:space="preserve">
<g>
	<path d="M350,443.5c57.7,0,104.7-47,104.7-104.7c0-52.1-82.9-217.8-91.8-236.9h-25.2c-9.5,19-91.8,184.8-91.8,236.9
		C245.3,397,292.3,443.5,350,443.5L350,443.5z M350,140c29.1,60.5,76.7,165.8,76.7,198.8c0,42-34.2,76.7-76.7,76.7
		c-42.6,0-76.7-34.2-76.7-76.7C273.3,306.3,320.9,200.5,350,140L350,140z"/>
	<path d="M521.4,490.6l-9-26.9L350,516.3l-162.4-52.6l-9,26.9l125.4,40.3l-125.4,40.3l9,26.9L350,545.4l162.4,52.6l9-26.9
		l-125.4-40.3L521.4,490.6z"/>
</g>
</svg>
