<svg width="308" height="307" viewBox="0 0 308 307" fill="none" xmlns="http://www.w3.org/2000/svg">
<path d="M154 0C68.9484 0 0 68.7245 0 153.5C0 238.276 68.9484 307 154 307C239.052 307 308 238.276 308 153.5C308 68.7245 239.052 0 154 0ZM248.375 247.569C224.974 270.824 193.724 284.563 160.715 286.107C127.707 287.652 95.3034 276.892 69.8193 255.923C44.3352 234.955 27.5959 205.281 22.8631 172.683C18.1303 140.084 25.7431 106.897 44.218 79.5883C62.6929 52.2791 90.7065 32.8041 122.8 24.958C154.894 17.1118 188.769 21.4566 217.825 37.1457C246.88 52.8348 269.035 78.7444 279.972 109.826C290.909 140.907 289.844 174.934 276.986 205.276C270.285 221.086 260.568 235.45 248.375 247.569Z" fill="white"/>
<path d="M97.533 194.436H210.466V214.902H97.533V194.436ZM124.887 135.621L109.46 121.952L123.173 106.576L107.827 92.9785L94.1136 108.355L78.6872 94.6875L65.0454 109.984L80.4724 123.652L66.7599 139.029L82.106 152.626L95.8191 137.249L111.245 150.917L124.887 135.621V135.621ZM236.106 106.576L220.76 92.9785L207.047 108.355L191.621 94.6875L177.979 109.984L193.406 123.652L179.693 139.029L195.039 152.626L208.752 137.249L224.179 150.917L237.821 135.621L222.394 121.952L236.106 106.576Z" fill="white"/>
</svg>
