<?xml version="1.0" encoding="utf-8"?>
<!-- Generator: Adobe Illustrator 26.1.0, SVG Export Plug-In . SVG Version: 6.00 Build 0)  -->
<svg version="1.1" id="Ebene_1" xmlns="http://www.w3.org/2000/svg" xmlns:xlink="http://www.w3.org/1999/xlink" x="0px" y="0px"
	 viewBox="0 0 700 700" style="enable-background:new 0 0 700 700;" xml:space="preserve">
<path d="M544.4,238.4l-135-137.9H155.6v511.1h388.9L544.4,238.4z M415.1,138.2l96.8,98.8h-96.8V138.2z M178,589.1V122.9h214.7v136.5
	H522v329.7H178z"/>
<path d="M285.9,270.3h184.5v22.4H285.9V270.3z"/>
<path d="M229.6,270.3v22.4h22.7l-0.3-22.4H229.6z"/>
<path d="M285.9,343.1h184.5v22.4H285.9V343.1z"/>
<path d="M229.6,343.1v22.4h22.7l-0.3-22.4H229.6z"/>
<path d="M285.9,415.9h184.5v22.4H285.9V415.9z"/>
<path d="M229.6,415.9v22.4h22.7l-0.3-22.4H229.6z"/>
</svg>
