<?xml version="1.0" encoding="utf-8"?>
<!-- Generator: Adobe Illustrator 26.1.0, SVG Export Plug-In . SVG Version: 6.00 Build 0)  -->
<svg version="1.1" id="Ebene_1" xmlns="http://www.w3.org/2000/svg" xmlns:xlink="http://www.w3.org/1999/xlink" x="0px" y="0px"
	 viewBox="0 0 700 700" style="enable-background:new 0 0 700 700;" xml:space="preserve">
<g>
	<path d="M577.5,584.1h-455c-4.8,0-8.8-3.9-8.8-8.8v-245c0-4.8,3.9-8.8,8.8-8.8h455c2.3,0,4.5,0.9,6.2,2.6s2.6,3.9,2.6,6.2v245
		c0,2.3-0.9,4.5-2.6,6.2S579.8,584.1,577.5,584.1z M131.2,566.6h437.5V339.1H131.2V566.6z"/>
	<path d="M572.3,339.1H226.3c-4.1,0.1-7.7-2.5-8.8-6.5c-1-3.8,0.7-7.9,4.1-9.9l259.6-149.9c2-1.2,4.4-1.5,6.7-0.9
		c2.2,0.6,4.2,2.1,5.3,4.1L580,326c1.6,2.7,1.6,6,0,8.8C578.4,337.4,575.5,339.1,572.3,339.1L572.3,339.1z M258.9,321.6h298.3
		l-74.6-129.1L258.9,321.6z"/>
	<path d="M226.3,339.1h-39.9c-3.1,0-6-1.7-7.6-4.4c-1.6-2.7-1.6-6,0-8.8l118.7-205.6c1.2-2,3.1-3.5,5.3-4.1c2.2-0.6,4.6-0.3,6.7,0.9
		l138.8,80.1v0c2.7,1.6,4.4,4.5,4.4,7.6c0,3.2-1.7,6.1-4.4,7.6L230.5,338C229.2,338.7,227.7,339.1,226.3,339.1L226.3,339.1z
		 M201.2,321.6H224l202.5-116.9l-118-68.2L201.2,321.6z"/>
	<path d="M507.5,549.1h-315c-4.8,0-8.8-3.9-8.8-8.8c0-7-2.8-13.6-7.7-18.6s-11.6-7.7-18.6-7.7c-4.8,0-8.8-3.9-8.8-8.8v-105
		c0-4.8,3.9-8.8,8.8-8.8c7,0,13.6-2.8,18.6-7.7s7.7-11.6,7.7-18.6c0-4.8,3.9-8.8,8.8-8.8h315c2.3,0,4.5,0.9,6.2,2.6s2.6,3.9,2.6,6.2
		c0,7,2.8,13.6,7.7,18.6s11.6,7.7,18.6,7.7c2.3,0,4.5,0.9,6.2,2.6s2.6,3.9,2.6,6.2v105c0,2.3-0.9,4.5-2.6,6.2
		c-1.6,1.6-3.9,2.6-6.2,2.6c-7,0-13.6,2.8-18.6,7.7c-4.9,4.9-7.7,11.6-7.7,18.6c0,2.3-0.9,4.5-2.6,6.2
		C512,548.2,509.8,549.1,507.5,549.1z M200.4,531.6h299.2c1.7-8.4,5.9-16.1,11.9-22.2c6.1-6.1,13.8-10.2,22.2-11.9v-89.2
		c-8.4-1.7-16.1-5.9-22.2-11.9c-6.1-6.1-10.2-13.8-11.9-22.2H200.4c-1.7,8.4-5.9,16.1-11.9,22.2c-6.1,6.1-13.8,10.2-22.2,11.9v89.2
		c8.4,1.7,16.1,5.9,22.2,11.9C194.5,515.5,198.7,523.2,200.4,531.6z"/>
	<path d="M531.8,339.1H296.3c-4.1,0.1-7.7-2.5-8.8-6.5c-1-3.8,0.7-7.9,4.1-9.9L438,238.2c2-1.2,4.4-1.5,6.7-0.9
		c2.3,0.6,4.2,2.1,5.3,4.1c3.5,6,9.2,10.4,15.9,12.2c6.7,1.8,13.8,0.8,19.9-2.6c2-1.2,4.4-1.5,6.6-1c2.2,0.7,4.1,2.1,5.3,4.1
		l41.4,71.8c1.6,2.7,1.6,6,0,8.8C537.7,337.3,534.9,339,531.8,339.1L531.8,339.1z M328.9,321.6h187.8l-29.9-51.8
		c-8.1,2.7-16.9,3-25.1,0.8c-8.3-2.2-15.7-6.8-21.4-13.2L328.9,321.6z"/>
	<path d="M227.5,339.1c-2.3,0-4.6-0.9-6.2-2.5c-2.8-2.8-3.4-7.1-1.4-10.6l73.4-127.2c1.2-2,3.1-3.5,5.3-4.1c2.3-0.6,4.7-0.2,6.7,1
		c6,3.5,13.2,4.4,19.9,2.6c6.7-1.8,12.4-6.2,15.9-12.2c1.2-2,3.1-3.5,5.3-4.1c2.2-0.6,4.6-0.2,6.6,0.9l60.7,35
		c2.7,1.6,4.4,4.5,4.4,7.6s-1.7,6.1-4.4,7.6l-181.9,105C230.5,338.7,229,339.1,227.5,339.1L227.5,339.1z M304.5,214.3L250.9,306
		l140.5-80.7l-40.8-23.4h0c-5.7,6.4-13.2,11-21.4,13.2c-8.3,2.2-17.1,1.9-25.2-0.8L304.5,214.3z"/>
	<path d="M350,514.1c-16.2,0-31.8-6.5-43.3-17.9c-11.5-11.5-17.9-27.1-17.9-43.3s6.5-31.8,17.9-43.3c11.5-11.5,27.1-17.9,43.3-17.9
		s31.8,6.5,43.3,17.9c11.5,11.5,17.9,27.1,17.9,43.3s-6.5,31.8-17.9,43.3C381.8,507.6,366.2,514.1,350,514.1z M350,409.1
		c-11.6,0-22.7,4.6-30.9,12.8c-8.2,8.2-12.8,19.3-12.8,30.9s4.6,22.7,12.8,30.9c8.2,8.2,19.3,12.8,30.9,12.8s22.7-4.6,30.9-12.8
		c8.2-8.2,12.8-19.3,12.8-30.9s-4.6-22.7-12.8-30.9C372.7,413.7,361.6,409.1,350,409.1z"/>
</g>
</svg>
