<?xml version="1.0" encoding="utf-8"?>
<!-- Generator: Adobe Illustrator 26.1.0, SVG Export Plug-In . SVG Version: 6.00 Build 0)  -->
<svg version="1.1" id="Ebene_1" xmlns="http://www.w3.org/2000/svg" xmlns:xlink="http://www.w3.org/1999/xlink" x="0px" y="0px"
	 viewBox="0 0 700 700" style="enable-background:new 0 0 700 700;" xml:space="preserve">
<path d="M618.2,138.4c-0.3-2.6-1.8-4.8-4-6.2c-121.6-73.9-199,22.7-199.7,23.6c-1.6,2.1-2.2,4.8-1.5,7.3c6.7,26.4,9.8,53.2,9.6,79.9
	C239.4,218.4,144,341.2,145.9,522.2c-14.6-0.6-29.5-2.3-44.4-5.4c-4.4-0.9-8.6,1.7-9.9,6l-12.8,45.5c-1.3,4.4,1.3,9.1,5.7,10.4
	C346.9,659.9,656.9,440.1,618.2,138.4L618.2,138.4z M581.4,318.4c-0.2-0.1-0.4-0.2-0.7-0.3c-49.9-26.3-102.9-25.6-151,1.6
	c8.3-32.6,11.4-66.3,9.2-100c14.2-12.5,79.9-62.6,165.2-11.8C602.3,245.8,594.8,282.8,581.4,318.4L581.4,318.4z M601.9,144.7
	c1.7,14.8,2.6,29.4,2.7,43.9c-77.8-41.5-141.4-7.6-167.6,11.1c-1.5-12.2-3.7-24.4-6.6-36.5C443.7,148.4,505.6,88.5,601.9,144.7
	L601.9,144.7z M421.9,260.2C412.5,403.4,306.6,519.3,163,522.4C161.9,351.1,247.2,235.8,421.9,260.2z M105.9,534.9
	c12.6,2.2,25.1,3.6,37.4,4.2L132.8,573c-11.9-2.1-23.7-4.8-35.4-8.1L105.9,534.9z M149.8,575.6l11.2-36.1
	c117.7-1.4,220.1-75.4,261.2-194.6c0,0,0,0,0.1,0c44-33.4,99.3-39.6,152.5-10.6c0.1,0,0.2,0.1,0.3,0.1
	C504.9,496.7,321.3,597.3,149.8,575.6L149.8,575.6z"/>
</svg>
