<?xml version="1.0" encoding="utf-8"?>
<!-- Generator: Adobe Illustrator 26.1.0, SVG Export Plug-In . SVG Version: 6.00 Build 0)  -->
<svg version="1.1" id="Ebene_1" xmlns="http://www.w3.org/2000/svg" xmlns:xlink="http://www.w3.org/1999/xlink" x="0px" y="0px"
	 viewBox="0 0 700 700" style="enable-background:new 0 0 700 700;" xml:space="preserve">
<style type="text/css">
	.st0{fill:#E19F54;}
</style>
<path class="st0" d="M236.4,649.2c2.2,3.6,6.2,5.7,10.4,5.7h234.6c6.8,0,12.4-5.6,12.4-12.4v-39.2c0-21.7,6.1-42.9,17.7-61.3
	c14.1-22.4,21.5-48.1,21.5-74.5l0-323.8c0-26.6-21.6-48.2-48.2-48.2c-26.6,0-48.2,21.6-48.2,48.2v84.5c-7-4-14.9-6.4-23.5-6.4
	c-14.3,0-27.1,6.4-35.8,16.3c-8.8-9.9-21.5-16.3-35.8-16.3c-8.5,0-16.6,2.5-23.5,6.4v-143c0-26.6-21.6-48.2-48.2-48.2
	s-48.2,21.6-48.2,48.2v224.6h-47.9c-31.1,0-56.5,25.3-56.5,56.5v78c0,10.8,3.1,21.1,8.8,30.1L236.4,649.2z M413.1,246.7
	c13,0,23.5,10.5,23.5,23.5v67.7c0,13-10.5,23.5-23.5,23.5s-23.5-10.5-23.5-23.5v-67.7C389.5,257.2,400.1,246.7,413.1,246.7z
	 M341.3,246.7c13,0,23.5,10.5,23.5,23.5v67.7c0,10.6-7,19.4-16.7,22.4c3.6-10.8,5.6-22.1,5.6-34.1v-3.8c0-6.8-5.6-12.4-12.4-12.4
	h-23.5v-39.8C317.8,257.2,328.4,246.7,341.3,246.7L341.3,246.7z M246.2,85.3c0-13,10.5-23.5,23.5-23.5s23.5,10.5,23.5,23.5v224.6
	h-46.9L246.2,85.3z M141.8,366.4c0-17.5,14.2-31.8,31.8-31.8h155.1c-4.3,41.9-39.8,74.7-82.8,74.7c-5.2,0-9.9,3.3-11.6,8.3
	c-1.7,4.9-0.1,10.5,3.8,13.7c1.7,1.4,41.8,34.3,25.3,72.4c-2.7,6.3,0.1,13.6,6.4,16.3c6.3,2.7,13.6-0.1,16.3-6.4
	c14.9-34.2-0.1-64.3-14.3-82.7c26.7-6.5,49.5-23.1,64.3-45.3c1.9,0.2,3.7,0.5,5.6,0.5c14.3,0,27.1-6.4,35.8-16.3
	c8.9,9.9,21.5,16.3,35.8,16.3c26.6,0,48.2-21.6,48.2-48.2v-67.7l0-126.5c0-13,10.5-23.5,23.5-23.5c13,0,23.5,10.5,23.5,23.5v323.8
	c0,21.7-6.1,43-17.7,61.3c-14.1,22.4-21.5,48.1-21.5,74.5v26.8H253.7l-107-168.8c-3.2-5.1-4.9-11-4.9-16.9L141.8,366.4z"/>
</svg>
