<?xml version="1.0" encoding="utf-8"?>
<!-- Generator: Adobe Illustrator 26.1.0, SVG Export Plug-In . SVG Version: 6.00 Build 0)  -->
<svg version="1.1" id="Ebene_1" xmlns="http://www.w3.org/2000/svg" xmlns:xlink="http://www.w3.org/1999/xlink" x="0px" y="0px"
	 viewBox="0 0 700 700" style="enable-background:new 0 0 700 700;" xml:space="preserve">
<style type="text/css">
	.st0{fill:#E19F54;}
</style>
<path class="st0" d="M577.4,529.4h-455c-2.2,0-4-1.6-4.3-3.7l-43.8-280c-0.3-1.6,0.4-3.3,1.8-4.2c1.4-1,3.1-1.1,4.6-0.3l113.8,61.2
	c1.2,0.7,2,1.8,2.2,3.2s-0.3,2.7-1.2,3.7c-0.2,0.2-16.2,16.6-16.2,40.7c0,26.4,17.5,65.6,65.6,65.6c41.1,0,65.6-33.4,65.6-65.6
	c0-49.5-50.1-83.5-50.5-83.9c-1.1-0.7-1.8-1.9-1.9-3.2c-0.1-1.3,0.3-2.6,1.3-3.5l87.5-87.5c1.7-1.7,4.5-1.7,6.2,0l87.5,87.5
	c0.9,0.9,1.4,2.2,1.3,3.5s-0.8,2.5-1.9,3.2c-0.5,0.3-50.5,34.4-50.5,83.9c0,32.3,24.6,65.6,65.6,65.6c48.2,0,65.6-39.2,65.6-65.6
	c0-24-16.1-40.5-16.2-40.7c-1-1-1.4-2.4-1.2-3.7c0.2-1.4,1-2.6,2.2-3.2l113.8-61.2c1.5-0.8,3.2-0.7,4.6,0.3c1.3,1,2,2.6,1.8,4.2
	l-43.8,280C581.4,527.8,579.6,529.4,577.4,529.4L577.4,529.4z M126.1,520.6h447.5L615.4,253l-101.2,54.5c5.5,7.1,15,22.3,15,42.5
	c0,29.9-19.8,74.4-74.4,74.4c-46.6,0-74.4-37.8-74.4-74.4c0-45.8,37.2-78.2,50.2-88l-80.7-80.8L269.1,262
	c12.9,9.9,50.2,42.3,50.2,88c0,36.6-27.8,74.4-74.4,74.4c-54.6,0-74.4-44.5-74.4-74.4c0-20.2,9.5-35.4,15-42.5L84.3,253.1
	L126.1,520.6L126.1,520.6z"/>
</svg>
