<svg width="250" height="97" viewBox="0 0 250 97" fill="none" xmlns="http://www.w3.org/2000/svg">
<rect x="5" width="3" height="97" fill="white"/>
<rect x="77" width="6" height="97" fill="white"/>
<rect x="146" width="3" height="97" fill="white"/>
<rect x="151" width="3" height="97" fill="white"/>
<rect x="12" width="5" height="97" fill="white"/>
<rect x="86" width="1" height="97" fill="white"/>
<rect x="95" width="1" height="97" fill="white"/>
<rect x="21" width="2" height="97" fill="white"/>
<rect x="92" width="2" height="97" fill="white"/>
<rect x="166" width="5" height="97" fill="white"/>
<rect x="28" width="5" height="97" fill="white"/>
<rect x="100" width="2" height="97" fill="white"/>
<rect x="35" width="1" height="97" fill="white"/>
<rect x="107" width="4" height="97" fill="white"/>
<rect x="131" width="4" height="97" fill="white"/>
<rect x="40" width="6" height="97" fill="white"/>
<rect x="115" width="7" height="97" fill="white"/>
<rect x="51" width="7" height="97" fill="white"/>
<rect x="127" width="1" height="97" fill="white"/>
<rect x="64" width="1" height="97" fill="white"/>
<rect x="136" width="3" height="97" fill="white"/>
<rect x="70" width="1" height="97" fill="white"/>
<rect x="67" width="1" height="97" fill="white"/>
<rect x="48" width="1" height="97" fill="white"/>
<rect x="142" width="1" height="97" fill="white"/>
<rect x="155" width="1" height="97" fill="white"/>
<rect x="157" width="3" height="97" fill="white"/>
<rect x="163" width="1" height="97" fill="white"/>
<rect x="172" width="1" height="97" fill="white"/>
</svg>
