<?xml version="1.0" encoding="utf-8"?>
<!-- Generator: Adobe Illustrator 26.1.0, SVG Export Plug-In . SVG Version: 6.00 Build 0)  -->
<svg version="1.1" id="Ebene_1" xmlns="http://www.w3.org/2000/svg" xmlns:xlink="http://www.w3.org/1999/xlink" x="0px" y="0px"
	 viewBox="0 0 337.1 94" style="enable-background:new 0 0 337.1 94;" xml:space="preserve">
<style type="text/css">
	.st0{enable-background:new    ;}
	.st1{fill:#FFFFFF;}
	.st2{fill:#E19F53;}
</style>
<g id="a">
</g>
<g class="st0">
	<path class="st1" d="M1.2,69.1c0-0.8,2.6-2.5,2.6-4.2V29.2c0-1.7-2.6-3.4-2.6-4.2c0-0.4,0.2-0.6,0.7-0.6h18.4c3.6,0,5.5,1.5,5.5,5
		v14.7c0,1.4-0.7,2.2-1.7,3l-4,2.8c2.2,6.7,5.1,14.9,5.8,15.8c1.4,2.1,2.8,2.6,2.8,3.4c0,0.4-0.2,0.6-0.7,0.6h-9.7
		c-0.4,0-0.7-0.2-0.7-0.6c0-0.8,1.3-1.1,1.3-2.2c0-0.2-0.1-0.5-0.3-1.2c-0.8-2.7-2.6-7.8-4.4-12.4l-3.8,2.5
		c-0.5,0.4-0.7,0.9-0.7,1.6v7.5c0,1.7,2.6,3.4,2.6,4.2c0,0.4-0.2,0.6-0.7,0.6H1.9C1.4,69.7,1.2,69.5,1.2,69.1z M9.8,30.4v18.3
		c0,0.4,0.2,0.7,0.4,0.7c0.3,0,0.8-0.4,0.8-0.4l6.9-4.5c1.3-1,1.9-1.7,1.9-2.7V31c0-1.4-0.5-1.9-1.9-1.9h-7.1
		C10.3,29.2,9.8,29.7,9.8,30.4z"/>
</g>
<g class="st0">
	<path class="st1" d="M52.3,24.4c0.7,0,0.8,0.2,0.8,0.6c0,0.5-1.6,2.7-1.6,3.8c0,1.6,8,33.5,8.3,34.9c0.8,3.1,3.2,4.9,3.2,5.4
		c0,0.5-0.2,0.6-0.9,0.6h-9.4c-0.5,0-1-0.1-1-0.6c0-0.5,2.3-2.4,2.3-3.2s-1.9-7.9-2.1-8.6c-0.1-0.4-0.2-0.5-0.5-0.5
		c-0.2,0-0.6,0.1-1.2,0.4l-10.2,5.7c-0.5,0.3-0.8,0.5-0.8,1v1c0,1.9,2.2,4.1,2.2,4.3c0,0.4-0.2,0.6-0.8,0.6h-9.9
		c-0.4,0-0.7-0.2-0.7-0.6c0-0.6,2.4-2.5,2.9-4.3c0.5-1.7,8.6-34.9,8.6-36s-1.6-3.4-1.6-3.8c0-0.4,0.2-0.6,0.8-0.6H52.3z M47,34.3
		c0,0-0.1-0.4-0.5-0.4c-0.3,0-0.4,0.4-0.4,0.4l-4.6,21c0,0.2,0.1,0.3,0.2,0.3c0.1,0,0.2-0.1,0.3-0.1c1.7-1,6.7-3.7,8.2-4.6
		c0.2-0.2,0.4-0.3,0.4-0.5c0-0.1-0.1-0.6-0.1-0.6L47,34.3z"/>
</g>
<g class="st0">
	<path class="st1" d="M80.8,55.5c-0.4,0-1.7,0.9-2.3,0.9c-0.4,0-0.5-0.4-0.5-0.8v-4.8c0-0.7,0.4-1,1.3-1.6c0,0,6.6-3.1,7.3-3.1
		c0.5,0,0.8,0.3,0.8,0.8v18.5c0,1.9-1.8,4.1-4.9,4.1H70.6c-2.8,0-4.7-1.4-4.7-3.8V28.2c0-2.5,1.9-3.8,4.7-3.8h11.8
		c3.1,0,4.9,2.2,4.9,4.1v5.9c0,1-0.2,1.4-0.6,1.7c0,0-4,2.9-4.6,2.9c-0.5,0-0.8-0.3-0.8-0.8v-7.7c0-0.8-0.6-1.3-1.1-1.3h-7
		c-0.9,0-1.3,0.4-1.3,1.3v33.1c0,0.9,0.4,1.3,1.3,1.3h7c0.5,0,1.1-0.5,1.1-1.3v-7.4C81.3,55.8,81.2,55.5,80.8,55.5z"/>
</g>
<g class="st0">
	<path class="st1" d="M114.6,69.7c-0.9,0-1.3-0.6-2-1.8L99.8,41.1c-0.3-0.6-0.4-0.8-0.7-0.8c-0.2,0-0.3,0.2-0.3,0.7v23.9
		c0,1.7,2.6,3.4,2.6,4.2c0,0.4-0.2,0.6-0.7,0.6h-9.5c-0.4,0-0.7-0.2-0.7-0.6c0-0.8,2.6-2.5,2.6-4.2V29.2c0-1.7-2.6-3.4-2.6-4.2
		c0-0.4,0.2-0.6,0.7-0.6h6.8c0.9,0,1.4,0.6,2,1.8l13.1,29c0.1,0.2,0.2,0.5,0.4,0.5c0.2,0,0.2-0.4,0.2-0.4V29.2
		c0-1.7-2.6-3.4-2.6-4.2c0-0.4,0.2-0.6,0.7-0.6h9.5c0.4,0,0.7,0.2,0.7,0.6c0,0.8-2.6,2.5-2.6,4.2v39.3c0,0.6-0.2,1.2-1.1,1.2H114.6z
		"/>
</g>
<g class="st0">
	<path class="st1" d="M144.5,24.4c0.7,0,0.8,0.2,0.8,0.6c0,0.5-1.6,2.7-1.6,3.8c0,1.6,8,33.5,8.3,34.9c0.8,3.1,3.2,4.9,3.2,5.4
		c0,0.5-0.2,0.6-0.9,0.6h-9.4c-0.5,0-1-0.1-1-0.6c0-0.5,2.3-2.4,2.3-3.2s-1.9-7.9-2.1-8.6c-0.1-0.4-0.2-0.5-0.5-0.5
		c-0.2,0-0.6,0.1-1.2,0.4l-10.2,5.7c-0.5,0.3-0.8,0.5-0.8,1v1c0,1.9,2.2,4.1,2.2,4.3c0,0.4-0.2,0.6-0.8,0.6h-9.9
		c-0.4,0-0.7-0.2-0.7-0.6c0-0.6,2.4-2.5,2.9-4.3c0.5-1.7,8.6-34.9,8.6-36s-1.6-3.4-1.6-3.8c0-0.4,0.2-0.6,0.8-0.6H144.5z
		 M139.3,34.3c0,0-0.1-0.4-0.5-0.4c-0.3,0-0.4,0.4-0.4,0.4l-4.6,21c0,0.2,0.1,0.3,0.2,0.3c0.1,0,0.2-0.1,0.3-0.1
		c1.7-1,6.7-3.7,8.2-4.6c0.2-0.2,0.4-0.3,0.4-0.5c0-0.1-0.1-0.6-0.1-0.6L139.3,34.3z"/>
</g>
<g class="st0">
	<path class="st1" d="M223.7,69.1c0-0.8,2.6-2.5,2.6-4.2V29.2c0-1.7-2.6-3.4-2.6-4.2c0-0.4,0.2-0.6,0.7-0.6h18.4
		c3.6,0,5.5,1.5,5.5,5V44c0,1.4-0.7,2.2-1.7,3l-4,2.8c2.2,6.7,5.1,14.9,5.8,15.8c1.4,2.1,2.8,2.6,2.8,3.4c0,0.4-0.2,0.6-0.7,0.6
		h-9.7c-0.4,0-0.7-0.2-0.7-0.6c0-0.8,1.3-1.1,1.3-2.2c0-0.2-0.1-0.5-0.3-1.2c-0.8-2.7-2.6-7.8-4.4-12.4l-3.8,2.5
		c-0.5,0.4-0.7,0.9-0.7,1.6v7.5c0,1.7,2.6,3.4,2.6,4.2c0,0.4-0.2,0.6-0.7,0.6h-9.8C224,69.7,223.7,69.5,223.7,69.1z M232.3,30.4
		v18.3c0,0.4,0.2,0.7,0.4,0.7c0.3,0,0.8-0.4,0.8-0.4l6.9-4.5c1.3-1,1.9-1.7,1.9-2.7V31c0-1.4-0.5-1.9-1.9-1.9h-7.1
		C232.8,29.2,232.3,29.6,232.3,30.4z"/>
	<path class="st1" d="M271.5,69.7h-11.8c-2.8,0-4.7-1.4-4.7-3.8V28.2c0-2.5,1.9-3.8,4.7-3.8h11.8c3.1,0,4.9,2.2,4.9,4.1v37
		C276.5,67.4,274.7,69.7,271.5,69.7z M269.3,29.2h-7c-0.9,0-1.3,0.4-1.3,1.3v33.1c0,0.9,0.4,1.3,1.3,1.3h7c0.5,0,1.1-0.5,1.1-1.3
		V30.4C270.5,29.6,269.9,29.2,269.3,29.2z"/>
	<path class="st1" d="M297.9,30.4c0-0.8-0.6-1.3-1.1-1.3h-7c-0.9,0-1.3,0.4-1.3,1.3v33.1c0,0.9,0.4,1.3,1.3,1.3h7
		c0.5,0,1.1-0.5,1.1-1.3v-5.8c0-1,0.2-1.4,0.6-1.7c0,0,4-2.9,4.6-2.9c0.5,0,0.8,0.3,0.8,0.8v11.5c0,1.9-1.8,4.1-4.9,4.1h-11.8
		c-2.8,0-4.7-1.4-4.7-3.8V28.2c0-2.5,1.9-3.8,4.7-3.8H299c3.1,0,4.9,2.2,4.9,4.1v5.9c0,1-0.2,1.4-0.6,1.7c0,0-4,2.9-4.6,2.9
		c-0.5,0-0.8-0.3-0.8-0.8V30.4z"/>
	<path class="st1" d="M333.3,65.6c1.4,2.1,3.2,2.6,3.2,3.4c0,0.4-0.2,0.6-0.7,0.6h-9.7c-0.4,0-0.7-0.2-0.7-0.6
		c0-0.8,1.3-1.1,1.3-2.2c0-0.2-0.1-0.6-0.4-1.2L319,51.8c-0.2-0.3-0.2-0.4-0.4-0.4s-0.2,0.1-0.4,0.4l-2.4,3.8
		c-0.4,0.7-0.4,1-0.4,1.7v7.5c0,1.7,2.6,3.4,2.6,4.2c0,0.4-0.2,0.6-0.7,0.6h-9.8c-0.4,0-0.7-0.2-0.7-0.6c0-0.8,2.6-2.5,2.6-4.2V29.2
		c0-1.7-2.6-3.4-2.6-4.2c0-0.4,0.2-0.6,0.7-0.6h9.8c0.4,0,0.7,0.2,0.7,0.6c0,0.8-2.6,2.5-2.6,4.2v15.1c0,0.2,0.1,0.4,0.3,0.4
		c0.1,0,0.2-0.1,0.3-0.2l8.6-15c0.7-1.1,1-1.7,1-2.3c0-1-1.3-1.4-1.3-2.2c0-0.4,0.2-0.6,0.7-0.6h9.7c0.4,0,0.7,0.2,0.7,0.6
		c0,0.8-1.9,1.3-3.2,3.4L323,44c0,0-0.4,0.6-0.4,0.9s0.1,0.6,0.3,1L333.3,65.6z"/>
</g>
<path class="st2" d="M184.6,0v71.9l-17-16.4l-5.5,8.3L193.4,94V22.1l17,16.4l5.5-8.3L184.6,0z"/>
</svg>
