<svg width="47" height="47" viewBox="0 0 47 47" fill="none" xmlns="http://www.w3.org/2000/svg">
<path d="M44.4059 0H2.59414C1.90613 0 1.2463 0.27331 0.759806 0.759806C0.27331 1.2463 0 1.90613 0 2.59414V44.4065C0.000173099 45.0944 0.27356 45.7541 0.760037 46.2404C1.24651 46.7268 1.90624 47 2.59414 47H25.1039V28.7993H18.9789V21.7062H25.1039V16.4748C25.1039 10.404 28.8117 7.09896 34.2271 7.09896C36.8212 7.09896 39.0505 7.29153 39.7006 7.37835V13.7227L35.9446 13.7247C32.9992 13.7247 32.4293 15.1242 32.4293 17.1778V21.7068H39.4532L38.5387 28.7999H32.4293V47H44.4065C45.0944 46.9998 45.7541 46.7264 46.2404 46.24C46.7268 45.7535 47 45.0938 47 44.4059V2.59414C47 1.90613 46.7267 1.2463 46.2402 0.759806C45.7537 0.27331 45.0939 0 44.4059 0Z" fill="white"/>
</svg>
