<svg width="47" height="47" viewBox="0 0 47 47" fill="none" xmlns="http://www.w3.org/2000/svg">
<path fill-rule="evenodd" clip-rule="evenodd" d="M23.4969 12.8169C20.6642 12.8169 17.9476 13.9422 15.9446 15.9451C13.9417 17.9481 12.8164 20.6647 12.8164 23.4974C12.8164 26.33 13.9417 29.0466 15.9446 31.0496C17.9476 33.0525 20.6642 34.1778 23.4969 34.1778C26.3295 34.1778 29.0461 33.0525 31.0491 31.0496C33.0521 29.0466 34.1773 26.33 34.1773 23.4974C34.1773 20.6647 33.0521 17.9481 31.0491 15.9451C29.0461 13.9422 26.3295 12.8169 23.4969 12.8169ZM17.0886 23.4974C17.0886 25.1969 17.7637 26.8269 18.9655 28.0287C20.1673 29.2305 21.7973 29.9056 23.4969 29.9056C25.1964 29.9056 26.8264 29.2305 28.0282 28.0287C29.23 26.8269 29.9051 25.1969 29.9051 23.4974C29.9051 21.7978 29.23 20.1678 28.0282 18.966C26.8264 17.7642 25.1964 17.0891 23.4969 17.0891C21.7973 17.0891 20.1673 17.7642 18.9655 18.966C17.7637 20.1678 17.0886 21.7978 17.0886 23.4974Z" fill="white"/>
<path d="M36.3138 8.54492C35.7473 8.54492 35.204 8.76997 34.8034 9.17057C34.4028 9.57116 34.1777 10.1145 34.1777 10.681C34.1777 11.2475 34.4028 11.7909 34.8034 12.1915C35.204 12.5921 35.7473 12.8171 36.3138 12.8171C36.8804 12.8171 37.4237 12.5921 37.8243 12.1915C38.2249 11.7909 38.4499 11.2475 38.4499 10.681C38.4499 10.1145 38.2249 9.57116 37.8243 9.17057C37.4237 8.76997 36.8804 8.54492 36.3138 8.54492Z" fill="white"/>
<path fill-rule="evenodd" clip-rule="evenodd" d="M8.54437 0C6.27826 0 4.10497 0.900207 2.50259 2.50259C0.900207 4.10497 0 6.27826 0 8.54437V38.4496C0 40.7158 0.900207 42.889 2.50259 44.4914C4.10497 46.0938 6.27826 46.994 8.54437 46.994H38.4496C40.7158 46.994 42.889 46.0938 44.4914 44.4914C46.0938 42.889 46.994 40.7158 46.994 38.4496V8.54437C46.994 6.27826 46.0938 4.10497 44.4914 2.50259C42.889 0.900207 40.7158 0 38.4496 0H8.54437ZM38.4496 4.27218H8.54437C7.41131 4.27218 6.32467 4.72229 5.52348 5.52348C4.72229 6.32467 4.27218 7.41131 4.27218 8.54437V38.4496C4.27218 39.5827 4.72229 40.6693 5.52348 41.4705C6.32467 42.2717 7.41131 42.7218 8.54437 42.7218H38.4496C39.5827 42.7218 40.6693 42.2717 41.4705 41.4705C42.2717 40.6693 42.7218 39.5827 42.7218 38.4496V8.54437C42.7218 7.41131 42.2717 6.32467 41.4705 5.52348C40.6693 4.72229 39.5827 4.27218 38.4496 4.27218Z" fill="white"/>
</svg>
